HIERARCHY
ROOT RootJoint
{
    OFFSET   0.000000   0.000000   0.000000
    CHANNELS 6 Xposition Yposition Zposition Xrotation Yrotation Zrotation
    JOINT pelvis_lowerback
    {
        OFFSET   0.000000   0.093605   0.000000
        CHANNELS 3 Xrotation Yrotation Zrotation
        JOINT lowerback_torso
        {
            OFFSET   0.000000   0.100000   0.000000
            CHANNELS 3 Xrotation Yrotation Zrotation
            JOINT torso_head
            {
                OFFSET   0.000000   0.282350   0.000000
                CHANNELS 3 Xrotation Yrotation Zrotation
                End Site
                {
                    OFFSET   0.000000   0.192650   0.000000
                }
            }
            JOINT rTorso_Clavicle
            {
                OFFSET  -0.001000   0.157500   0.000000
                CHANNELS 3 Xrotation Yrotation Zrotation
                JOINT rShoulder
                {
                    OFFSET  -0.117647   0.000000   0.000000
                    CHANNELS 3 Xrotation Yrotation Zrotation
                    JOINT rElbow
                    {
                        OFFSET  -0.245000   0.000000   0.000000
                        CHANNELS 3 Xrotation Yrotation Zrotation
                        JOINT rWrist
                        {
                            OFFSET  -0.240000   0.000000   0.000000
                            CHANNELS 3 Xrotation Yrotation Zrotation
                            End Site
                            {
                                OFFSET  -0.116353  -0.002500   0.000000
                            }
                        }
                    }
                }
            }
            JOINT lTorso_Clavicle
            {
                OFFSET   0.001000   0.157500   0.000000
                CHANNELS 3 Xrotation Yrotation Zrotation
                JOINT lShoulder
                {
                    OFFSET   0.117647   0.000000   0.000000
                    CHANNELS 3 Xrotation Yrotation Zrotation
                    JOINT lElbow
                    {
                        OFFSET   0.245000   0.000000   0.000000
                        CHANNELS 3 Xrotation Yrotation Zrotation
                        JOINT lWrist
                        {
                            OFFSET   0.240000   0.000000   0.000000
                            CHANNELS 3 Xrotation Yrotation Zrotation
                            End Site
                            {
                                OFFSET   0.116353  -0.002500   0.000000
                            }
                        }
                    }
                }
            }
        }
    }
    JOINT rHip
    {
        OFFSET  -0.100000  -0.051395   0.000000
        CHANNELS 3 Xrotation Yrotation Zrotation
        JOINT rKnee
        {
            OFFSET   0.000000  -0.410000   0.000000
            CHANNELS 3 Xrotation Yrotation Zrotation
            JOINT rAnkle
            {
                OFFSET   0.000000  -0.390000   0.000000
                CHANNELS 3 Xrotation Yrotation Zrotation
                JOINT rToeJoint
                {
                    OFFSET   0.000000  -0.050000   0.130000
                    CHANNELS 3 Xrotation Yrotation Zrotation
                    End Site
                    {
                        OFFSET  -0.010000   0.002000   0.060000
                    }
                }
            }
        }
    }
    JOINT lHip
    {
        OFFSET   0.100000  -0.051395   0.000000
        CHANNELS 3 Xrotation Yrotation Zrotation
        JOINT lKnee
        {
            OFFSET   0.000000  -0.410000   0.000000
            CHANNELS 3 Xrotation Yrotation Zrotation
            JOINT lAnkle
            {
                OFFSET   0.000000  -0.390000   0.000000
                CHANNELS 3 Xrotation Yrotation Zrotation
                JOINT lToeJoint
                {
                    OFFSET   0.000000  -0.050000   0.130000
                    CHANNELS 3 Xrotation Yrotation Zrotation
                    End Site
                    {
                        OFFSET   0.010000   0.002000   0.060000
                    }
                }
            }
        }
    }
}
MOTION
Frames: 14
Frame Time:   0.008333
 -2.341861   0.800949   3.464889  10.207768 -14.970382   5.146286  62.975287   0.032490   5.473895  -4.255005   2.171464  -0.093492   0.197879 -14.411410   0.398962 -10.426779  17.623072  -8.584919 -25.544957  -1.585399  33.237048 -179.993410  74.229044 179.992619   7.752617   2.049052  -6.832736  -3.511396   3.945601   3.693022  -8.882251  11.261393 -40.559454 179.999962 -68.012746 179.999950   2.394047  -3.461257  10.711042 -56.320356   0.314877  -4.844587  81.570363  -0.050313  -0.107270 -17.086836  -8.163305  -1.434308  -1.176096  -0.001639   0.004867 -37.614255  25.545035   2.869648  68.967629  -0.058735  -0.045307 -28.910170  32.213783  20.578078 -23.183036   0.024351   0.134104
 -2.342147   0.796042   3.465754  10.381774 -15.940375   5.415936  62.756443   0.023333   5.064941  -4.684891   2.290423  -0.333348   0.262645 -14.145703   0.357673 -10.408405  17.274677  -8.555182 -25.443090  -1.354229  33.325247 -179.986631  73.742878 179.985191   7.599134   1.964373  -6.812515  -3.329625   3.904694   3.550505  -8.901606  11.276892 -40.279380 179.999532 -68.153795 179.999156   2.350472  -3.598897  10.722157 -56.290643   0.540473  -5.305611  82.528511  -0.044575  -0.095173 -15.401787  -8.187471  -1.429466  -1.200658  -0.001429   0.004142 -38.547627  24.960889   3.195057  71.481118  -0.075768  -0.053508 -28.569126  31.386760  20.163647 -21.878871   0.020038   0.073801
 -2.342348   0.790403   3.466743  10.551914 -16.905260   5.754075  62.515469  -0.016208   4.638518  -5.130738   2.372157  -0.571488   0.317884 -13.889651   0.313258 -10.386584  16.899409  -8.526678 -25.337179  -1.149100  33.401372 -179.980841  73.250419 179.978651   7.471006   2.071660  -6.790966  -3.167503   3.867531   3.439032  -8.931217  11.299625 -39.997757 179.998985 -68.303629 179.998257   2.296713  -3.646641  10.789471 -56.244326   0.826534  -5.845030  83.201571  -0.038582  -0.082954 -13.813791  -8.208336  -1.422526  -1.082691  -0.000800   0.002041 -39.387125  24.415261   3.466244  74.120873  -0.092063  -0.058326 -28.221683  30.604458  19.769878 -20.456393   0.012362   0.022602
 -2.342482   0.784093   3.467846  10.710286 -17.864808   6.102380  62.261527  -0.064386   4.233698  -5.573598   2.437799  -0.801821   0.365391 -13.650108   0.267806 -10.369094  16.532551  -8.506495 -25.239026  -0.963719  33.463912 -179.976412  72.785634 179.973551   7.354381   2.225262  -6.787586  -3.019463   3.835539   3.341953  -8.962849  11.323638 -39.729583 179.998496 -68.446138 179.997492   2.241122  -3.665844  10.886043 -56.200795   1.115828  -6.402458  83.740830  -0.033177  -0.071889 -12.333209  -8.228477  -1.414932  -0.967729  -0.000385   0.000380 -40.125230  23.923122   3.676240  76.683651  -0.103851  -0.059929 -27.920898  29.819757  19.398362 -19.596428   0.006500  -0.003214
 -2.342575   0.777918   3.468756  10.792302 -18.914712   6.476440  62.155684  -0.114923   3.773652  -5.965554   2.489085  -1.059506   0.398242 -13.426369   0.222090 -10.372335  16.213459  -8.504896 -25.168937  -0.781077  33.510931 -179.974396  72.355162 179.971134   7.243595   2.362566  -6.850885  -2.902531   3.772797   3.269008  -9.016388  11.334257 -39.469436 179.998428 -68.583826 179.997200   2.184867  -3.663375  11.043734 -56.561481   1.001674  -6.564782  84.590016  -0.034437  -0.064108 -11.721162  -7.776597  -1.195982 -10.599352   0.058164   0.060751 -40.691452  23.506723   3.815818  79.041890  -0.111655  -0.059854 -27.622068  29.062886  19.037220 -18.704352   0.001206  -0.024035
 -2.342451   0.771907   3.469687  10.801811 -19.910586   6.820565  62.134848  -0.179505   3.410866  -6.287545   2.518439  -1.293119   0.434396 -13.217888   0.176289 -10.380674  15.922842  -8.512596 -25.109739  -0.605474  33.546280 -179.973568  71.956257 179.970247   7.138374   2.494107  -6.917942  -2.795889   3.692738   3.178063  -9.066688  11.333359 -39.242723 179.998683 -68.710616 179.997303   2.132469  -3.668839  11.177782 -57.013756   0.963752  -6.641337  85.502530  -0.035336  -0.057171 -11.047327  -7.632311  -1.101872 -18.452159   0.066149   0.118539 -41.116452  23.101351   3.879756  81.260355  -0.115499  -0.057988 -27.329416  28.386734  18.708660 -17.592506  -0.004987  -0.044244
 -2.342161   0.766060   3.470658  10.776937 -20.841079   7.120376  62.158397  -0.249280   3.133198  -6.557421   2.531937  -1.479567   0.474102 -13.023535   0.137927 -10.386328  15.650074  -8.514171 -25.052191  -0.443421  33.579821 -179.973445  71.585698 179.970337   7.037621   2.618373  -6.976631  -2.694925   3.606345   3.076631  -9.110426  11.326061 -39.042726 179.999111 -68.827746 179.997623   2.083388  -3.683055  11.274981 -57.492636   0.973847  -6.689393  86.417328  -0.035236  -0.050955 -10.364631  -7.545183  -1.033964 -25.300719   0.053073   0.154643 -41.458567  22.713139   3.921712  83.348645  -0.115852  -0.054428 -27.044714  27.771793  18.406192 -16.356418  -0.011629  -0.060999
 -2.342072   0.760529   3.470973  10.956745 -21.466001   7.315118  61.914760  -0.310445   2.948861  -6.638298   2.526247  -1.482868   0.649381 -12.509112   0.199605 -10.567472  15.358132  -8.389006 -25.074343  -0.132165  33.630816 -179.972454  71.172177 179.969730   6.920329   2.494354  -7.059550  -2.801711   3.504001   2.920060  -9.146918  11.442446 -38.791912 179.998898 -69.137713 179.996822   2.012809  -3.932531  11.319377 -57.974231   1.235932  -6.655048  86.993048  -0.029722  -0.042726  -9.377032  -6.776101  -0.866913 -34.031594   0.041992   0.115102 -42.558618  21.719374   3.888628  85.554730  -0.121967  -0.055976 -28.402706  26.138933  18.058221 -14.835344  -0.005888  -0.085273
 -2.342046   0.755336   3.471073  11.028417 -22.043355   7.478661  61.802229  -0.367747   2.711739  -6.633737   2.520638  -1.488326   0.837550 -12.017392   0.269502 -10.752638  15.100673  -8.265635 -25.112903   0.168987  33.685912 -179.973552  70.772829 179.971248   6.811414   2.409444  -7.228483  -2.917050   3.390954   2.786194  -9.199418  11.552247 -38.544904 179.999082 -69.450735 179.996666   1.927462  -4.079558  11.435785 -58.328611   1.533375  -6.624872  87.451368  -0.024694  -0.035578  -8.490315  -5.988545  -0.699088 -42.313145   0.043235   0.081468 -43.853419  20.722010   3.831365  87.600137  -0.124200  -0.056498 -29.683334  24.606534  17.700807 -13.573061  -0.001242  -0.096463
 -2.342021   0.750387   3.471115  10.960483 -22.610719   7.606759  61.809835  -0.415390   2.437439  -6.544063   2.520573  -1.528331   1.025832 -11.557754   0.329546 -10.922807  14.876231  -8.145805 -25.149937   0.457496  33.744212 -179.976020  70.399005 179.974163   6.708408   2.344183  -7.387815  -3.025594   3.275900   2.659333  -9.250505  11.651940 -38.314332 179.999450 -69.748578 179.996961   1.837985  -4.179695  11.549162 -58.591855   1.820692  -6.616578  87.900409  -0.020662  -0.029847  -7.679654  -5.246747  -0.543701 -49.887021   0.048507   0.062942 -45.244287  19.787230   3.766373  89.472124  -0.122772  -0.055767 -30.872447  23.180846  17.330652 -12.428329   0.002793  -0.100813
 -2.341755   0.746439   3.471054  10.727848 -23.278431   7.586029  62.046130  -0.405424   2.158027  -6.353819   2.561256  -1.612705   1.200927 -11.126228   0.376168 -11.091026  14.719735  -8.042070 -25.201321   0.750554  33.799232 -179.979437  70.058207 179.978132   6.608661   2.271617  -7.537055  -3.131749   3.151228   2.513984  -9.300143  11.742052 -38.115243 -179.999292 -70.030176 179.998330   1.747797  -4.249479  11.679163 -59.064592   2.047741  -6.517710  88.889756  -0.019050  -0.027324  -7.586876  -4.504005  -0.314587 -48.909723   0.035830   0.048757 -46.668833  18.889680   3.781933  91.128687  -0.118497  -0.054565 -31.977685  21.855810  16.954013 -11.372027   0.006407  -0.101259
 -2.341349   0.743174   3.471088  10.352005 -23.935748   7.489417  62.383649  -0.400278   1.880316  -6.069622   2.603574  -1.705401   1.382348 -10.723839   0.419566 -11.235480  14.590443  -7.927244 -25.240858   1.030870  33.865705 -179.982904  69.741410 179.982186   6.512306   2.204164  -7.625735  -3.222912   3.027657   2.356747  -9.337007  11.823095 -37.941388 -179.997886 -70.296697 179.999977   1.657151  -4.297798  11.754903 -59.428892   2.235832  -6.439043  89.822937  -0.017707  -0.025195  -7.121978  -3.800662  -0.138453 -48.127877   0.026565   0.038007 -48.105383  18.044560   3.769599  92.630481  -0.112200  -0.052983 -33.007104  20.623637  16.576626 -10.405290   0.009550  -0.098676
 -2.340833   0.740373   3.471288   9.870728 -24.577655   7.349368  62.760683  -0.401793   1.593701  -5.733394   2.643986  -1.807965   1.564156 -10.348563   0.458084 -11.354284  14.472217  -7.800647 -25.264083   1.291331  33.942192 -179.985978  69.446728 179.985774   6.418145   2.135906  -7.652088  -3.298787   2.913440   2.195062  -9.360925  11.899360 -37.787336 -179.996816 -70.548563 -179.998643   1.566026  -4.326493  11.776911 -59.656833   2.406045  -6.391423  90.671608  -0.016424  -0.023243  -6.536432  -3.141155   0.007953 -47.502378   0.019722   0.029616 -49.559167  17.267746   3.723321  94.006606  -0.104801  -0.051133 -33.967084  19.477744  16.202189  -9.523921   0.012091  -0.094063
 -2.340475   0.736981   3.471883   9.400621 -25.203008   7.306062  62.882573  -0.422428   1.235348  -5.332254   2.624892  -1.930581   1.869147  -9.925537   0.461782 -11.361533  14.347036  -7.584971 -25.206430   1.513639  34.249640 -179.988954  69.496065 179.988612   6.331926   2.355690  -7.738320  -3.368674   2.810319   2.065350  -9.119682  11.830635 -37.726700 -179.994428 -70.886736 -179.995698   1.429456  -4.399234  11.980773 -59.863644   2.567584  -6.483086  91.634605  -0.016403  -0.022749  -6.489348  -2.477726   0.128073 -45.967834   0.011949   0.020399 -50.797788  16.369900   3.601915  94.720492  -0.092948  -0.044710 -33.680543  18.340837  15.386207  -8.609712   0.014104  -0.092767
